<svg width="680" height="200" viewBox="0 0 680 200" fill="none" xmlns="http://www.w3.org/2000/svg">
<path d="M29 58.5801L0.5 109.08V159.58L70.5 199.08L382 188.08L564 199.08L678.5 174.08L613 96.0801L629 34.0801L524.5 47.0801V0.580078L450.5 11.5801L433.5 42.0801L376.5 58.5801L382 25.0801L252 58.5801L245 34.0801L157 47.0801L171 11.5801L89 0.580078L70.5 47.0801L29 58.5801Z" fill="white" stroke="black"/>
<g clip-path="url(#clip0_2860_909)">
<path d="M458.299 25.5801C469.532 25.5801 480.766 25.5801 492.34 25.5801C492.34 73.5389 492.34 121.498 492.34 170.91C481.538 170.91 470.737 170.91 459.608 170.91C458.96 165.077 458.96 165.077 458.299 159.126C457.002 160.423 455.706 161.719 454.371 163.054C453.507 163.054 452.643 163.054 451.752 163.054C451.752 163.918 451.752 164.783 451.752 165.673C439.44 172.763 423.65 173.148 409.973 170.046C407.024 168.844 404.618 167.481 402 165.673C401.014 165.037 400.028 164.4 399.013 163.745C387.281 155.474 379.802 144.435 377.123 130.322C374.054 112.036 376.795 95.0414 386.043 79.0968C393.814 68.8829 403.343 60.6233 416.402 58.312C432.944 57.1084 443.446 58.6286 456.989 68.7863C457.421 54.5282 457.853 40.2702 458.299 25.5801ZM417.547 91.1258C410.522 102.132 409.283 114.502 411.87 127.254C413.642 133.096 415.884 137.791 420.33 142.106C428.063 145.879 437.202 146.325 445.462 143.87C452.218 140.463 455.429 135.024 457.756 128.011C459.774 117.125 459.652 104.806 454.371 94.9718C449.821 89.6057 445.977 86.1239 438.869 85.4591C437.531 85.4659 436.192 85.4726 434.813 85.4796C433.478 85.4728 432.143 85.4661 430.768 85.4591C425.193 85.9573 421.574 87.2178 417.547 91.1258Z" fill="#070707"/>
<path d="M100.866 25.5801C112.099 25.5801 123.333 25.5801 134.907 25.5801C134.907 73.5389 134.907 121.498 134.907 170.91C124.105 170.91 113.304 170.91 102.175 170.91C101.527 165.077 101.527 165.077 100.866 159.126C100.217 159.883 99.5694 160.639 98.9016 161.418C87.3764 171.79 73.9178 171.722 59.2346 171.139C53.4683 170.681 49.2783 168.917 44.5666 165.673C43.5809 165.052 42.5953 164.431 41.5798 163.791C31.6756 156.924 24.8735 146.948 20.9996 135.559C20.4647 130.093 20.4577 124.638 20.4424 119.147C20.427 116.533 20.3621 113.918 20.2964 111.305C20.2034 94.355 24.6366 82.3466 36.4603 70.1723C47.1889 60.0939 58.3548 57.6185 72.7615 57.5647C82.918 57.9084 92.2863 61.5162 99.5563 68.7863C99.9883 54.5282 100.42 40.2702 100.866 25.5801ZM61.5872 89.7347C54.2694 100.305 52.6591 111.088 53.7315 123.776C55.2046 130.926 57.5735 136.939 62.8965 142.106C70.6298 145.879 79.7691 146.325 88.0285 143.87C95.4165 140.144 98.3426 133.963 100.866 126.395C102.36 108.418 102.36 108.418 95.6284 92.3533C90.1541 86.8131 84.8221 85.3907 77.1349 85.1522C71.0711 85.4501 66.5095 85.92 61.5872 89.7347Z" fill="#070707"/>
<path d="M359.775 74.3495C373.118 88.3419 373.196 104.986 373.196 123.775C345.976 124.207 318.756 124.639 290.711 125.084C293.676 136.234 293.676 136.234 301.185 142.105C309.151 145.99 319.517 146.343 327.959 143.731C331.915 141.874 334.55 140.594 336.869 136.796C339.154 134.249 339.154 134.249 342.485 133.654C343.781 133.682 345.076 133.709 346.412 133.738C347.817 133.754 349.222 133.771 350.669 133.789C352.135 133.833 353.601 133.876 355.111 133.922C356.592 133.945 358.073 133.969 359.599 133.993C363.259 134.055 366.918 134.141 370.577 134.249C372.331 140.414 370.703 142.943 367.958 148.651C367.094 148.651 366.23 148.651 365.34 148.651C365.031 149.635 364.722 150.619 364.404 151.633C359.991 160.981 347.198 166.215 337.845 169.599C330.793 171.714 323.458 171.257 316.16 171.318C314.681 171.356 313.201 171.394 311.677 171.433C294.576 171.561 281.205 165.943 268.694 154.292C257.996 142.737 255.473 128.135 255.314 112.774C256.179 95.0345 262.47 81.6507 275.572 69.6852C300.157 49.8307 337.269 53.7393 359.775 74.3495ZM296.766 88.5879C293.454 92.0935 293.454 92.0935 290.711 102.826C306.265 102.826 321.819 102.826 337.845 102.826C336.553 93.0708 336.553 93.0708 329.989 87.1149C318.785 80.626 307.775 83.3734 296.766 88.5879Z" fill="#070707"/>
<path d="M237.03 71.4031C247.231 80.8898 252.248 93.1492 254.051 106.754C254.051 112.37 254.051 117.987 254.051 123.774C226.399 123.774 198.747 123.774 170.257 123.774C173.768 137.569 173.768 137.569 180.158 141.613C189.912 145.515 200.15 146.542 210.272 143.168C213.669 141.001 213.669 141.001 215.238 137.399C221.022 132.136 227.891 133.568 235.393 133.839C237.7 133.884 237.7 133.884 240.053 133.929C243.848 134.006 247.639 134.114 251.432 134.248C252.741 136.867 252.741 136.867 251.954 139.757C249.253 146.632 246.896 151.786 240.958 156.506C239.014 157.154 239.014 157.154 237.03 157.815C237.03 158.68 237.03 159.544 237.03 160.434C234.579 161.695 232.123 162.949 229.665 164.198C228.298 164.897 226.931 165.596 225.523 166.316C215.748 170.906 207.509 171.387 196.852 171.399C194.65 171.447 194.65 171.447 192.405 171.496C175.081 171.557 162.021 165.634 149.257 154.092C137.69 142.082 135.771 126.273 135.939 110.247C136.898 93.5706 143.429 81.3065 155.446 69.9046C178.7 51.2466 214.514 52.6335 237.03 71.4031ZM174.185 92.3516C172.197 96.2332 171.566 98.4497 171.566 102.826C187.12 102.826 202.675 102.826 218.7 102.826C217.355 94.7548 216.329 92.7261 210.845 87.1145C198.843 79.8014 183.818 82.7183 174.185 92.3516Z" fill="#070707"/>
<path d="M585.55 66.913C593.291 73.271 598.134 79.3856 599.456 89.5697C599.727 92.5871 599.727 92.5871 599.701 94.9704C596.403 98.269 588.081 96.9013 583.663 97.0162C582.287 97.098 580.912 97.1799 579.494 97.2642C575.497 97.3478 572.149 97.3004 568.279 96.2797C565.775 93.7577 564.431 91.4882 562.967 88.2626C561.831 85.4288 561.831 85.4288 558.213 83.8416C550.579 82.6892 540.949 81.259 534.237 85.8055C533.067 89.1412 533.067 89.1412 532.928 92.3519C540.245 95.3478 547.45 97.3146 555.166 99.0178C588.904 106.47 588.904 106.47 599.348 119.837C603.984 127.168 604.798 135.276 603.02 143.669C600.522 152.394 596.539 158.824 588.746 163.672C576.823 169.887 566.17 171.366 552.834 171.322C550.214 171.318 547.595 171.35 544.975 171.382C528.85 171.39 516.36 168.809 504.124 157.816C496.818 148.895 494.959 143.515 494.959 131.63C505.761 131.63 516.562 131.63 527.691 131.63C529.419 135.087 531.147 138.543 532.928 142.104C540.76 147.437 549.913 146.933 559.114 146.032C562.571 145.051 565.122 143.866 568.279 142.104C567.847 139.944 567.414 137.784 566.969 135.558C564.027 134.592 561.081 133.638 558.132 132.694C557.206 132.398 556.28 132.101 555.326 131.796C548.883 129.783 542.419 128.123 535.842 126.609C522.854 123.6 512.99 120.076 502.815 111.173C498.529 103.941 497.066 96.2533 497.89 87.8666C500.504 77.8533 508.106 69.7386 516.465 63.9774C536.544 53.0894 566.746 53.4383 585.55 66.913Z" fill="#070707"/>
<path d="M606.246 140.795C617.48 140.795 628.713 140.795 640.287 140.795C640.287 150.732 640.287 160.67 640.287 170.908C629.054 170.908 617.82 170.908 606.246 170.908C606.246 160.971 606.246 151.033 606.246 140.795Z" fill="#070707"/>
</g>
<defs>
<clipPath id="clip0_2860_909">
<rect width="619.289" height="145.33" fill="white" transform="translate(21 25.5801)"/>
</clipPath>
</defs>
</svg>
