<svg width="684" height="203" viewBox="0 0 684 203" fill="none" xmlns="http://www.w3.org/2000/svg">
<path d="M30.5 60.3184L2 110.818V161.318L72 200.818L383.5 189.818L565.5 200.818L680 175.818L614.5 97.8184L630.5 35.8184L526 48.8184V2.31836L452 13.3184L435 43.8184L378 60.3184L383.5 26.8184L253.5 60.3184L246.5 35.8184L158.5 48.8184L172.5 13.3184L90.5 2.31836L72 48.8184L30.5 60.3184Z" fill="white" stroke="#27E700" stroke-width="4"/>
<g clip-path="url(#clip0_2860_909)">
<path d="M459.799 27.3184C471.032 27.3184 482.266 27.3184 493.84 27.3184C493.84 75.2772 493.84 123.236 493.84 172.648C483.038 172.648 472.237 172.648 461.108 172.648C460.46 166.815 460.46 166.815 459.799 160.865C458.502 162.161 457.206 163.457 455.871 164.793C455.007 164.793 454.143 164.793 453.252 164.793C453.252 165.657 453.252 166.521 453.252 167.411C440.94 174.501 425.15 174.886 411.473 171.784C408.524 170.582 406.118 169.219 403.5 167.411C402.514 166.775 401.528 166.139 400.513 165.483C388.781 157.212 381.302 146.173 378.623 132.061C375.554 113.775 378.295 96.7796 387.543 80.8351C395.314 70.6212 404.843 62.3616 417.902 60.0503C434.444 58.8466 444.946 60.3668 458.489 70.5245C458.921 56.2665 459.353 42.0085 459.799 27.3184ZM419.047 92.8641C412.022 103.871 410.783 116.24 413.37 128.992C415.142 134.834 417.384 139.53 421.83 143.844C429.563 147.617 438.702 148.063 446.962 145.609C453.718 142.201 456.929 136.762 459.256 129.749C461.274 118.864 461.152 106.544 455.871 96.7101C451.321 91.344 447.477 87.8622 440.369 87.1974C439.031 87.2041 437.692 87.2109 436.313 87.2178C434.978 87.2111 433.643 87.2043 432.268 87.1974C426.693 87.6956 423.074 88.9561 419.047 92.8641Z" fill="#070707"/>
<path d="M102.366 27.3184C113.599 27.3184 124.833 27.3184 136.407 27.3184C136.407 75.2772 136.407 123.236 136.407 172.648C125.605 172.648 114.804 172.648 103.675 172.648C103.027 166.815 103.027 166.815 102.366 160.865C101.717 161.621 101.069 162.377 100.402 163.156C88.8764 173.529 75.4178 173.46 60.7346 172.877C54.9683 172.42 50.7783 170.655 46.0666 167.411C45.0809 166.79 44.0953 166.169 43.0798 165.529C33.1756 158.662 26.3735 148.686 22.4996 137.298C21.9647 131.832 21.9577 126.376 21.9424 120.885C21.927 118.271 21.8621 115.657 21.7964 113.043C21.7034 96.0933 26.1366 84.0849 37.9603 71.9105C48.6889 61.8322 59.8548 59.3568 74.2615 59.303C84.418 59.6467 93.7863 63.2545 101.056 70.5245C101.488 56.2665 101.92 42.0085 102.366 27.3184ZM63.0872 91.473C55.7694 102.043 54.1591 112.826 55.2315 125.514C56.7046 132.665 59.0735 138.678 64.3965 143.844C72.1298 147.617 81.2691 148.063 89.5285 145.609C96.9165 141.883 99.8426 135.702 102.366 128.133C103.86 110.157 103.86 110.157 97.1284 94.0916C91.6541 88.5514 86.3221 87.129 78.6349 86.8905C72.5711 87.1884 68.0095 87.6582 63.0872 91.473Z" fill="#070707"/>
<path d="M361.275 76.0878C374.618 90.0802 374.696 106.724 374.696 125.513C347.476 125.945 320.256 126.377 292.211 126.822C295.176 137.972 295.176 137.972 302.685 143.843C310.651 147.729 321.017 148.081 329.459 145.469C333.415 143.612 336.05 142.332 338.369 138.534C340.654 135.987 340.654 135.987 343.985 135.393C345.281 135.42 346.576 135.448 347.912 135.476C349.317 135.493 350.722 135.51 352.169 135.527C353.635 135.571 355.101 135.615 356.611 135.66C358.092 135.684 359.573 135.707 361.099 135.732C364.759 135.793 368.418 135.879 372.077 135.987C373.831 142.152 372.203 144.682 369.458 150.389C368.594 150.389 367.73 150.389 366.84 150.389C366.531 151.373 366.222 152.357 365.904 153.371C361.491 162.72 348.698 167.953 339.345 171.338C332.293 173.452 324.958 172.995 317.66 173.056C316.181 173.094 314.701 173.132 313.177 173.171C296.076 173.299 282.705 167.681 270.194 156.03C259.496 144.475 256.973 129.873 256.814 114.512C257.679 96.7728 263.97 83.389 277.072 71.4235C301.657 51.569 338.769 55.4776 361.275 76.0878ZM298.266 90.3262C294.954 93.8318 294.954 93.8318 292.211 104.565C307.765 104.565 323.319 104.565 339.345 104.565C338.053 94.8091 338.053 94.8091 331.489 88.8532C320.285 82.3643 309.275 85.1117 298.266 90.3262Z" fill="#070707"/>
<path d="M238.53 73.1414C248.731 82.6281 253.748 94.8874 255.551 108.492C255.551 114.109 255.551 119.726 255.551 125.513C227.899 125.513 200.247 125.513 171.757 125.513C175.268 139.307 175.268 139.307 181.658 143.351C191.412 147.253 201.65 148.28 211.772 144.906C215.169 142.74 215.169 142.74 216.738 139.137C222.522 133.874 229.391 135.306 236.893 135.578C239.2 135.622 239.2 135.622 241.553 135.667C245.348 135.744 249.139 135.852 252.932 135.987C254.241 138.605 254.241 138.605 253.454 141.495C250.753 148.371 248.396 153.525 242.458 158.244C240.514 158.893 240.514 158.893 238.53 159.554C238.53 160.418 238.53 161.282 238.53 162.172C236.079 163.434 233.623 164.687 231.165 165.937C229.798 166.635 228.431 167.334 227.023 168.054C217.248 172.644 209.009 173.125 198.352 173.138C196.15 173.186 196.15 173.186 193.905 173.235C176.581 173.295 163.521 167.372 150.757 155.831C139.19 143.821 137.271 128.011 137.439 111.985C138.398 95.3089 144.929 83.0448 156.946 71.6429C180.2 52.9848 216.014 54.3718 238.53 73.1414ZM175.685 94.0899C173.697 97.9714 173.066 100.188 173.066 104.564C188.62 104.564 204.175 104.564 220.2 104.564C218.855 96.4931 217.829 94.4643 212.345 88.8528C200.343 81.5397 185.318 84.4566 175.685 94.0899Z" fill="#070707"/>
<path d="M587.05 68.6513C594.791 75.0092 599.634 81.1239 600.956 91.308C601.227 94.3254 601.227 94.3254 601.201 96.7087C597.903 100.007 589.581 98.6396 585.163 98.7545C583.787 98.8363 582.412 98.9182 580.994 99.0025C576.997 99.0861 573.649 99.0386 569.779 98.018C567.275 95.496 565.931 93.2265 564.467 90.0009C563.331 87.1671 563.331 87.1671 559.713 85.5799C552.079 84.4274 542.449 82.9972 535.737 87.5438C534.567 90.8795 534.567 90.8795 534.428 94.0902C541.745 97.086 548.95 99.0529 556.666 100.756C590.404 108.208 590.404 108.208 600.848 121.575C605.484 128.906 606.298 137.015 604.52 145.408C602.022 154.132 598.039 160.562 590.246 165.41C578.323 171.626 567.67 173.104 554.334 173.06C551.714 173.056 549.095 173.088 546.475 173.12C530.35 173.128 517.86 170.548 505.624 159.554C498.318 150.633 496.459 145.253 496.459 133.369C507.261 133.369 518.062 133.369 529.191 133.369C530.919 136.825 532.647 140.282 534.428 143.843C542.26 149.175 551.413 148.671 560.614 147.771C564.071 146.789 566.622 145.604 569.779 143.843C569.347 141.682 568.914 139.522 568.469 137.296C565.527 136.331 562.581 135.376 559.632 134.432C558.706 134.136 557.78 133.84 556.826 133.534C550.383 131.521 543.919 129.861 537.342 128.347C524.354 125.338 514.49 121.815 504.315 112.911C500.029 105.679 498.566 97.9916 499.39 89.6049C502.004 79.5915 509.606 71.4769 517.965 65.7157C538.044 54.8276 568.246 55.1766 587.05 68.6513Z" fill="#070707"/>
<path d="M607.746 142.533C618.98 142.533 630.213 142.533 641.787 142.533C641.787 152.471 641.787 162.408 641.787 172.647C630.554 172.647 619.32 172.647 607.746 172.647C607.746 162.709 607.746 152.772 607.746 142.533Z" fill="#070707"/>
</g>
<defs>
<clipPath id="clip0_2860_909">
<rect width="619.289" height="145.33" fill="white" transform="translate(22.5 27.3184)"/>
</clipPath>
</defs>
</svg>
